<?xml version="1.0" standalone="no"?>
<!DOCTYPE svg PUBLIC "-//W3C//DTD SVG 20010904//EN"
 "http://www.w3.org/TR/2001/REC-SVG-20010904/DTD/svg10.dtd">
<svg version="1.0" xmlns="http://www.w3.org/2000/svg"
 width="460.000000pt" height="460.000000pt" viewBox="0 0 460.000000 460.000000"
 preserveAspectRatio="xMidYMid meet">

<g transform="translate(0.000000,460.000000) scale(0.100000,-0.100000)"
fill="#000000" stroke="none">
<path d="M2570 4163 c-57 -20 -133 -61 -180 -98 -100 -77 -101 -77 -231 -54
-75 13 -147 19 -210 17 l-97 -3 -45 42 c-51 47 -96 73 -127 73 -91 0 -238
-163 -282 -315 -7 -22 -31 -72 -55 -110 -23 -39 -57 -113 -75 -165 -31 -91
-32 -101 -33 -250 0 -135 4 -171 29 -281 l28 -127 -47 -67 c-110 -158 -180
-334 -173 -435 5 -72 76 -224 139 -296 70 -81 69 -93 -13 -208 -34 -48 -36
-97 -7 -146 l21 -34 23 76 c12 42 26 83 32 90 5 7 25 51 44 97 43 106 52 77
13 -41 -34 -103 -41 -266 -13 -309 20 -29 126 -89 159 -89 20 0 22 4 17 35 -9
55 9 50 28 -8 9 -28 31 -70 48 -93 35 -44 99 -104 113 -104 5 -1 20 -10 33
-21 21 -17 22 -22 10 -30 -7 -5 -17 -9 -20 -9 -3 0 -18 -11 -33 -25 -20 -18
-26 -34 -26 -65 0 -34 3 -40 21 -40 12 0 39 -20 65 -49 24 -26 68 -61 98 -77
48 -25 54 -32 49 -52 -5 -21 -3 -23 15 -18 17 6 19 3 15 -14 -4 -15 -1 -20 13
-20 22 0 154 -49 154 -57 0 -3 -13 -3 -28 0 -27 5 -28 4 -24 -29 5 -43 -17
-46 -55 -8 -26 26 -26 26 -19 2 9 -31 13 -108 5 -108 -8 0 -19 38 -19 66 0 39
-81 92 -111 73 -12 -7 -11 -9 2 -9 23 0 67 -37 84 -71 20 -38 1 -38 -21 1 -20
33 -61 54 -96 48 -22 -4 -22 -5 -3 -12 48 -18 68 -32 87 -59 26 -36 15 -48
-13 -13 -25 31 -69 56 -101 56 -13 0 -36 -11 -53 -25 l-30 -24 38 -1 c21 0 50
-6 65 -14 39 -20 73 -87 79 -155 5 -48 9 -58 22 -54 9 2 24 17 33 33 26 46
117 63 200 38 51 -15 91 -62 86 -99 -4 -26 -2 -28 29 -25 42 4 65 25 115 104
22 34 49 67 59 73 10 5 19 16 19 24 0 19 10 19 150 -4 71 -12 119 -16 124 -10
6 5 24 9 42 9 28 0 33 4 39 32 9 42 31 84 56 109 28 28 17 35 -20 13 -17 -10
-37 -33 -43 -51 -6 -17 -15 -30 -20 -27 -17 11 -7 35 31 73 33 33 37 41 23 46
-19 7 -49 -24 -64 -67 -11 -32 -28 -37 -28 -10 0 10 16 37 36 60 19 23 32 42
27 42 -15 0 -29 -15 -48 -47 -19 -32 -35 -43 -35 -23 0 6 -7 10 -15 10 -8 0
-15 5 -15 11 0 5 -4 7 -10 4 -5 -3 -10 -24 -10 -46 0 -21 -5 -39 -11 -39 -16
0 -7 122 11 140 8 9 27 30 42 48 15 19 32 30 38 27 5 -3 10 0 10 8 0 8 9 17
20 20 27 7 25 26 -2 36 -26 10 -55 -2 -78 -30 -11 -14 -34 -20 -90 -25 l-76
-7 2 339 c2 292 1 315 -6 165 -4 -95 -11 -190 -14 -210 -36 -213 -60 -321 -73
-321 -14 0 -156 31 -161 35 -1 1 2 26 8 55 6 33 19 62 35 78 14 13 25 35 25
48 0 12 5 45 11 72 8 35 9 60 1 88 l-10 39 -1 -37 c-1 -21 -10 -63 -22 -94
-17 -45 -27 -59 -55 -70 -40 -17 -194 -19 -194 -3 0 5 -4 8 -9 4 -5 -3 -18 6
-29 20 -11 14 -27 25 -35 25 -8 0 -17 9 -20 20 -3 12 0 20 8 20 7 0 12 12 11
29 -1 26 -3 28 -25 20 -16 -7 -32 -5 -52 5 -24 12 -30 12 -36 1 -7 -11 -17
-10 -58 7 -112 48 -180 119 -250 263 -22 46 -30 78 -33 135 -4 71 -2 77 27
117 29 39 31 49 31 124 0 90 10 95 35 18 10 -28 20 -47 24 -43 10 14 111 88
174 128 34 22 62 49 69 64 8 22 11 24 17 10 5 -16 9 -15 46 5 29 16 44 34 55
65 9 23 23 49 31 57 13 13 14 10 11 -27 l-4 -42 23 17 c13 9 35 25 49 34 14 9
40 30 58 45 18 15 43 28 55 28 16 0 26 9 34 30 10 27 14 29 38 20 14 -5 36
-10 48 -10 16 0 31 -16 55 -55 44 -73 56 -71 50 10 -6 70 2 80 29 38 17 -26
190 -199 215 -214 9 -6 17 0 25 19 12 27 12 27 13 -13 0 -38 5 -44 65 -92 36
-29 84 -62 105 -74 39 -22 39 -23 22 -42 -16 -19 -16 -20 5 -8 12 6 31 11 42
11 15 0 22 9 27 38 4 20 13 55 21 76 l13 40 -50 49 c-27 27 -52 59 -54 70 -15
73 -14 87 7 128 27 53 63 80 108 82 27 2 37 8 46 29 13 30 29 39 113 60 l54
14 -70 75 c-78 82 -104 118 -120 166 -13 38 -16 37 56 18 70 -19 80 -19 80 1
0 20 -59 44 -109 44 -43 0 -51 10 -51 65 0 30 3 33 38 39 20 3 52 6 70 6 17 0
32 4 32 10 0 19 -36 28 -80 20 -25 -5 -50 -9 -56 -10 -8 0 -14 55 -18 168 -8
177 -15 226 -45 307 -10 28 -31 93 -45 145 -33 113 -82 209 -141 270 -41 44
-43 47 -49 129 -8 95 -24 141 -57 165 -22 15 -87 20 -119 9z m82 -754 c40 -33
102 -79 138 -103 36 -24 80 -57 99 -75 l34 -32 -7 -97 c-6 -96 -6 -98 24 -140
35 -53 47 -117 30 -176 -21 -76 -132 -184 -255 -249 -96 -50 -123 -57 -226
-57 -87 0 -109 -4 -195 -35 -115 -42 -189 -45 -333 -15 -157 32 -294 109 -339
189 -26 46 -29 125 -7 178 20 48 19 66 -9 137 -46 118 -51 105 81 192 65 42
156 102 203 132 84 55 162 114 210 160 16 15 31 21 45 18 162 -44 198 -50 254
-38 31 7 81 25 111 40 30 16 58 30 63 31 4 0 40 -26 79 -60z m-407 -2378 c-5
-24 -12 -31 -31 -31 l-25 0 27 35 c31 41 39 39 29 -4z m297 -108 c25 -23 23
-68 -4 -87 -30 -21 -40 -20 -67 5 -18 17 -22 28 -17 52 10 48 52 63 88 30z
m-352 -74 c0 -8 14 -10 40 -6 22 3 38 2 35 -2 -2 -5 7 -19 20 -31 30 -28 32
-46 7 -59 -16 -9 -18 -17 -12 -56 4 -25 3 -48 -2 -51 -4 -3 -8 4 -8 15 0 34
-22 72 -51 87 -16 8 -55 14 -89 14 -72 0 -74 19 -2 21 26 1 38 4 27 6 -11 3
-25 10 -32 15 -8 7 -22 2 -45 -15 -48 -35 -56 -39 -63 -27 -3 5 5 14 19 19 18
7 23 15 19 30 -3 14 3 24 24 35 33 18 113 21 113 5z m209 -40 c-12 -23 -21
-25 -13 -4 4 8 2 15 -4 15 -5 0 -12 -12 -15 -26 -4 -22 -1 -25 15 -21 15 4 19
1 16 -16 -4 -26 -36 -30 -51 -6 -22 34 21 111 49 88 10 -8 11 -16 3 -30z m151
-71 c0 -4 -4 -8 -9 -8 -6 0 -12 4 -15 8 -3 5 1 9 9 9 8 0 15 -4 15 -9z m-356
-8 c45 -17 28 -29 -20 -14 -28 8 -63 11 -87 7 -29 -4 -38 -3 -33 5 9 15 105
16 140 2z m-27 -45 c19 -8 32 -19 28 -25 -4 -6 -16 -4 -31 7 -16 10 -47 17
-80 17 -52 1 -68 8 -41 20 18 8 83 -2 124 -19z m-21 -31 c19 -9 34 -21 34 -26
0 -5 -3 -8 -7 -6 -62 32 -92 40 -130 34 -25 -3 -43 -2 -43 4 0 16 109 11 146
-6z"/>
<path d="M2564 3233 c3 -4 0 -13 -7 -22 -10 -14 -10 -14 3 -5 8 6 22 13 30 16
10 3 7 6 -9 11 -13 3 -20 3 -17 0z"/>
<path d="M2625 3210 c11 -5 29 -9 40 -9 l20 0 -20 9 c-11 5 -29 9 -40 9 l-20
0 20 -9z"/>
<path d="M2705 3187 c15 -12 17 -22 11 -76 -4 -33 -13 -82 -21 -108 -8 -25
-10 -42 -5 -37 15 15 40 125 40 175 0 34 -5 49 -16 53 -25 10 -29 7 -9 -7z"/>
<path d="M1972 3147 c9 -7 24 -17 33 -22 17 -10 17 -13 1 -42 -33 -65 -9 -159
48 -187 62 -30 108 27 93 119 -5 32 -4 34 33 40 21 4 44 13 51 21 10 13 8 13
-17 4 -41 -16 -93 -4 -169 41 -63 36 -111 54 -73 26z m131 -102 c13 -9 17 -20
12 -34 -13 -40 -45 -19 -45 30 0 22 8 24 33 4z"/>
<path d="M1963 3080 c0 -30 2 -43 4 -27 2 15 2 39 0 55 -2 15 -4 2 -4 -28z"/>
<path d="M2584 3097 c9 -27 -4 -67 -20 -67 -8 0 -20 15 -27 33 l-14 32 -13
-25 c-7 -14 -14 -54 -14 -88 -1 -55 2 -66 22 -83 29 -23 54 -13 77 31 20 39
20 140 -1 166 -14 17 -15 17 -10 1z"/>
<path d="M2626 2891 c-3 -4 6 -6 19 -3 14 2 25 6 25 8 0 8 -39 4 -44 -5z"/>
<path d="M2362 2854 c-30 -21 -19 -34 27 -34 43 0 68 19 49 38 -17 17 -49 15
-76 -4z"/>
<path d="M2579 2764 c-18 -22 -83 -63 -128 -80 -30 -12 -31 -13 -7 -9 38 8
105 47 136 80 13 14 21 25 18 25 -3 0 -12 -7 -19 -16z"/>
<path d="M2150 2726 c17 -21 70 -49 78 -42 3 3 1 6 -5 6 -6 0 -28 12 -49 26
-21 15 -32 19 -24 10z"/>
<path d="M2248 2673 c6 -2 18 -2 25 0 6 3 1 5 -13 5 -14 0 -19 -2 -12 -5z"/>
<path d="M2318 2663 c18 -2 45 -2 60 0 15 2 0 4 -33 4 -33 0 -45 -2 -27 -4z"/>
<path d="M2475 890 c-17 -27 33 -42 54 -16 9 11 8 15 -5 20 -23 9 -42 7 -49
-4z"/>
<path d="M2158 813 c7 -3 16 -2 19 1 4 3 -2 6 -13 5 -11 0 -14 -3 -6 -6z"/>
<path d="M2255 790 c3 -5 11 -10 16 -10 6 0 7 5 4 10 -3 6 -11 10 -16 10 -6 0
-7 -4 -4 -10z"/>
<path d="M2195 780 c-3 -5 3 -10 15 -10 12 0 18 5 15 10 -3 6 -10 10 -15 10
-5 0 -12 -4 -15 -10z"/>
<path d="M3185 2440 c-52 -21 148 -71 280 -69 l40 0 -47 25 c-84 43 -221 66
-273 44z"/>
<path d="M2991 2364 c-32 -41 -28 -105 9 -160 17 -24 37 -44 44 -44 22 0 36
47 36 118 0 104 -43 145 -89 86z"/>
<path d="M3631 2318 c-7 -31 -20 -49 -43 -65 -39 -25 -144 -64 -152 -55 -4 3
-3 21 0 40 6 32 5 34 -12 27 -10 -4 -26 -7 -34 -7 -48 4 -108 12 -126 18 -20
5 -22 1 -29 -56 l-7 -61 -22 20 c-46 43 -32 19 19 -34 46 -47 50 -54 30 -53
-13 1 -22 5 -19 9 4 8 -35 24 -41 17 -2 -2 11 -21 30 -41 19 -21 32 -44 29
-51 -3 -8 0 -32 5 -54 9 -31 18 -42 42 -51 35 -12 30 -30 -9 -32 -18 -1 -21
-3 -9 -6 13 -3 16 -11 11 -26 -14 -49 -39 -97 -49 -97 -7 0 -10 -11 -7 -28 3
-20 -4 -35 -24 -55 -23 -23 -35 -27 -85 -27 -77 0 -196 38 -256 83 -86 63
-161 156 -218 269 -16 32 -30 56 -31 55 -2 -2 8 -33 21 -70 14 -37 25 -75 25
-83 0 -8 16 -40 35 -70 20 -30 33 -59 30 -65 -4 -5 -2 -9 4 -9 5 0 33 -23 63
-52 32 -31 82 -65 128 -87 72 -34 80 -36 189 -37 102 -1 116 -4 121 -20 6 -16
9 -15 26 11 10 17 44 55 76 86 33 32 59 67 63 85 19 83 13 79 106 80 147 1
226 52 275 179 21 53 27 89 28 147 1 70 -1 79 -30 120 -31 43 -95 88 -125 88
-11 0 -20 -14 -28 -42z m-273 -149 l27 -1 -26 -11 c-14 -7 -33 -18 -42 -26
-31 -25 -73 13 -47 44 8 10 18 11 36 4 14 -5 37 -9 52 -10z"/>
<path d="M2346 2328 c-9 -12 -16 -27 -16 -33 0 -5 5 -2 11 8 6 9 13 15 17 13
4 -3 8 4 8 15 0 24 -1 24 -20 -3z"/>
<path d="M2465 2318 c-4 -10 0 -26 9 -40 17 -24 20 -11 6 32 -6 21 -8 22 -15
8z"/>
<path d="M2290 2241 c0 -6 4 -13 10 -16 6 -3 7 1 4 9 -7 18 -14 21 -14 7z"/>
<path d="M2221 2177 c-1 -11 -25 -44 -55 -75 -82 -87 -119 -132 -108 -132 12
0 29 -66 37 -142 6 -50 9 -58 27 -58 22 0 22 7 2 -112 -5 -31 -4 -38 9 -38 12
0 18 14 24 53 4 28 6 56 4 62 -9 32 -1 99 14 114 15 15 18 14 36 -8 21 -26 23
-42 10 -88 -6 -20 -6 -35 0 -38 5 -4 9 -16 9 -28 0 -12 4 -28 9 -36 5 -8 7 22
4 75 l-6 89 24 -20 c13 -11 6 -1 -15 22 -37 40 -70 108 -60 124 2 4 9 45 14
91 6 46 15 95 21 110 6 15 9 33 6 40 -3 8 -6 6 -6 -5z"/>
<path d="M3076 2164 c-8 -22 -8 -22 16 -35 19 -10 20 -9 13 7 -4 11 -8 25 -8
32 -1 17 -14 15 -21 -4z"/>
<path d="M3111 2090 c0 -8 4 -22 9 -30 12 -18 12 -2 0 25 -6 13 -9 15 -9 5z"/>
<path d="M3050 2078 c0 -7 -3 -30 -6 -50 -6 -33 -4 -38 13 -38 15 0 19 -7 20
-35 1 -29 45 -125 57 -125 2 0 -8 28 -21 62 -21 50 -24 73 -20 117 5 44 3 57
-11 67 -22 17 -32 17 -32 2z"/>
<path d="M3146 2005 c3 -11 19 -28 37 -38 l32 -17 -24 20 c-14 12 -30 29 -37
38 -12 15 -13 15 -8 -3z"/>
<path d="M2013 1923 c-47 -62 -73 -85 -88 -79 -12 4 -13 2 -2 -14 9 -16 9 -24
0 -40 -11 -17 -9 -20 25 -30 75 -20 82 -13 82 98 0 35 5 72 10 83 17 31 3 22
-27 -18z"/>
<path d="M1890 1806 c0 -2 7 -7 16 -10 8 -3 12 -2 9 4 -6 10 -25 14 -25 6z"/>
<path d="M2629 1783 l-24 -28 28 24 c25 23 32 31 24 31 -2 0 -14 -12 -28 -27z"/>
<path d="M3160 1806 c0 -2 8 -10 18 -17 15 -13 16 -12 3 4 -13 16 -21 21 -21
13z"/>
<path d="M3200 1750 c0 -11 2 -20 4 -20 2 0 6 9 9 20 3 11 1 20 -4 20 -5 0 -9
-9 -9 -20z"/>
<path d="M2497 1743 c-4 -3 -7 -11 -7 -17 0 -6 5 -5 12 2 6 6 9 14 7 17 -3 3
-9 2 -12 -2z"/>
<path d="M2671 1728 c0 -9 -4 -25 -7 -35 -5 -14 -4 -15 5 -7 7 7 11 22 8 35
-2 13 -5 16 -6 7z"/>
<path d="M2535 1719 c-4 -5 -11 -6 -17 -3 -7 4 -8 2 -4 -4 4 -7 0 -12 -11 -13
-10 0 -13 -3 -7 -5 7 -3 27 1 45 9 26 10 30 15 16 20 -9 3 -19 2 -22 -4z"/>
<path d="M2193 1645 c-5 -31 -6 -52 -2 -48 8 9 24 103 17 103 -3 0 -9 -25 -15
-55z"/>
<path d="M2331 1664 c0 -11 3 -14 6 -6 3 7 2 16 -1 19 -3 4 -6 -2 -5 -13z"/>
<path d="M2310 1514 c0 -23 -2 -25 -16 -14 -13 12 -14 10 -3 -14 10 -21 10
-29 0 -39 -9 -9 -14 -9 -20 1 -7 11 -9 11 -14 -2 -5 -11 1 -18 21 -22 15 -4
33 -11 40 -17 9 -7 12 -2 12 20 0 16 -3 33 -7 37 -4 4 -6 23 -4 42 1 18 0 34
-3 34 -3 0 -6 -12 -6 -26z"/>
<path d="M2663 1475 c0 -22 2 -30 4 -17 2 12 2 30 0 40 -3 9 -5 -1 -4 -23z"/>
<path d="M2166 1423 c-6 -14 -5 -15 5 -6 7 7 10 15 7 18 -3 3 -9 -2 -12 -12z"/>
<path d="M2677 1325 c2 -60 8 -137 13 -170 13 -101 9 0 -5 145 l-14 135 6
-110z"/>
<path d="M2042 1383 c9 -11 33 -6 55 12 2 1 -12 1 -31 1 -26 -1 -32 -4 -24
-13z"/>
<path d="M1832 1344 c10 -10 20 -15 24 -12 3 4 -5 12 -18 18 -22 12 -22 12 -6
-6z"/>
<path d="M1995 1341 c-3 -5 -1 -12 5 -16 5 -3 10 1 10 9 0 18 -6 21 -15 7z"/>
<path d="M2703 900 c-13 -21 -19 -41 -14 -44 10 -7 63 69 54 78 -12 11 -18 6
-40 -34z"/>
<path d="M1890 885 c27 -14 36 -13 25 4 -3 6 -16 11 -28 11 -21 -1 -21 -1 3
-15z"/>
<path d="M1965 880 c10 -11 20 -18 23 -15 7 6 -18 35 -31 35 -5 0 -2 -9 8 -20z"/>
<path d="M2945 735 c-16 -8 -23 -14 -14 -15 8 0 24 7 35 15 23 18 18 18 -21 0z"/>
<path d="M2818 703 c12 -2 30 -2 40 0 9 3 -1 5 -23 4 -22 0 -30 -2 -17 -4z"/>
<path d="M2430 660 c8 -5 26 -10 39 -10 32 0 24 6 -19 14 -25 4 -31 3 -20 -4z"/>
<path d="M2508 643 c7 -3 16 -2 19 1 4 3 -2 6 -13 5 -11 0 -14 -3 -6 -6z"/>
<path d="M2558 633 c7 -3 16 -2 19 1 4 3 -2 6 -13 5 -11 0 -14 -3 -6 -6z"/>
<path d="M2628 623 c12 -2 30 -2 40 0 9 3 -1 5 -23 4 -22 0 -30 -2 -17 -4z"/>
<path d="M2345 573 l-18 -28 27 24 c28 26 31 31 17 31 -5 0 -17 -12 -26 -27z"/>
<path d="M1580 581 c0 -13 39 -35 48 -27 3 3 0 6 -6 6 -6 0 -18 7 -26 16 -9 8
-16 11 -16 5z"/>
<path d="M1668 543 c12 -2 30 -2 40 0 9 3 -1 5 -23 4 -22 0 -30 -2 -17 -4z"/>
<path d="M1768 543 c12 -2 32 -2 45 0 12 2 2 4 -23 4 -25 0 -35 -2 -22 -4z"/>
<path d="M2301 497 c-13 -21 -12 -21 5 -5 10 10 16 20 13 22 -3 3 -11 -5 -18
-17z"/>
<path d="M1988 463 c6 -2 18 -2 25 0 6 3 1 5 -13 5 -14 0 -19 -2 -12 -5z"/>
<path d="M2078 463 c6 -2 18 -2 25 0 6 3 1 5 -13 5 -14 0 -19 -2 -12 -5z"/>
</g>
</svg>
